PathFileType	4	(X/Y/Z)	C:/Users/opensim2020/Desktop/walking_exp_matlab/subject02_walking11_straight_04.trc	
DataRate	CameraRate	NumFrames	NumMarkers	Units	OrigDataRate	OrigDataStartFrame	OrigNumFrames	
100.00	100.00	7	42	mm	100.00	3397	227	
Frame#	Time	LFHD			RFHD			LBHD			RBHD			C7			T10			CLAV			STRN			RBAK			LSHO			LUPA			LELB			LFRM			LWRA			LWRB			LFIN			RSHO			RUPA			RELB			RFRM			RWRA			RWRB			RFIN			LASI			RASI			LPSI			RPSI			LTHI			LKNE			LTIB			LANK			LHEE			LTOE			RTHI			RKNE			RTIB			RANK			RHEE			RTOE			*39			*40			*41			
		X1	Y1	Z1	X2	Y2	Z2	X3	Y3	Z3	X4	Y4	Z4	X5	Y5	Z5	X6	Y6	Z6	X7	Y7	Z7	X8	Y8	Z8	X9	Y9	Z9	X10	Y10	Z10	X11	Y11	Z11	X12	Y12	Z12	X13	Y13	Z13	X14	Y14	Z14	X15	Y15	Z15	X16	Y16	Z16	X17	Y17	Z17	X18	Y18	Z18	X19	Y19	Z19	X20	Y20	Z20	X21	Y21	Z21	X22	Y22	Z22	X23	Y23	Z23	X24	Y24	Z24	X25	Y25	Z25	X26	Y26	Z26	X27	Y27	Z27	X28	Y28	Z28	X29	Y29	Z29	X30	Y30	Z30	X31	Y31	Z31	X32	Y32	Z32	X33	Y33	Z33	X34	Y34	Z34	X35	Y35	Z35	X36	Y36	Z36	X37	Y37	Z37	X38	Y38	Z38	X39	Y39	Z39	X40	Y40	Z40	X41	Y41	Z41	X42	Y42	Z42	

171	1.700	-1004.10413	-542.53064	1744.77563	-1146.25464	-548.37384	1725.36987	-1002.34283	-410.56747	1672.82227	-1144.01733	-403.90179	1652.41895	-1084.89343	-361.54730	1529.30579	-1101.83496	-311.06595	1253.60803	-1058.04919	-501.50565	1463.71069	-1073.51782	-556.26263	1292.60266	-1165.27649	-315.06339	1359.13855	-899.34650	-406.05304	1497.30029	-828.75958	-360.91287	1299.94666	-827.25922	-336.76788	1162.68237	-808.10968	-311.47897	1036.06982	-816.66394	-339.97037	898.77332	-799.52686	-289.45670	914.13141	-789.32184	-290.10880	847.40515	-1259.37744	-465.24875	1508.05725	-1361.05798	-481.11459	1324.25378	-1388.30103	-530.19165	1185.82227	-1401.45911	-596.90082	1084.51855	-1374.12817	-677.91901	979.31885	-1414.57129	-642.65808	963.01453	-1411.41565	-699.66785	918.56067	-959.84241	-543.73071	994.03534	-1215.24109	-545.68616	978.47858	-1041.85913	-333.88351	1035.70752	-1157.32336	-330.96579	1037.03589	-886.32471	-539.29120	692.22449	-911.74744	-570.01410	495.59775	-918.96515	-529.82404	306.26096	-941.06177	-555.36517	84.19974	-1001.54163	-538.04810	56.47446	-892.24579	-700.70508	50.49577	-1268.23572	-453.31839	671.29846	-1219.03223	-435.51147	462.65228	-1218.73938	-380.88120	281.11060	-1172.47888	-350.31210	91.13783	-1114.53052	-314.87088	38.75417	-1194.77612	-499.30942	35.77946	-1098.01978	-445.62521	1811.41626						 
172	1.710	-1002.34650	-549.61139	1743.40417	-1144.73254	-556.26355	1724.79712	-1001.38715	-417.59558	1671.95667	-1143.22852	-411.68713	1652.03406	-1084.48779	-369.04645	1528.63660	-1101.33386	-317.99509	1253.10474	-1057.61340	-508.83972	1462.88953	-1073.40088	-563.61487	1291.85706	-1165.09753	-322.38916	1358.70776	-898.98279	-413.14075	1496.16931	-828.73254	-367.36188	1298.96875	-827.31403	-342.81485	1161.90027	-807.65063	-316.24915	1035.56750	-815.23724	-344.39328	897.97961	-799.00018	-293.14786	914.00873	-788.40540	-293.68311	847.23480	-1258.78308	-473.07086	1507.75391	-1360.66675	-489.92303	1324.15430	-1387.62170	-540.08746	1185.90784	-1400.79248	-607.33966	1085.39441	-1373.43555	-689.35150	980.84039	-1413.92542	-654.21735	964.08240	-1410.48096	-711.44427	920.03333	-959.54883	-550.92590	993.19348	-1214.95459	-552.12476	978.08618	-1041.16113	-340.87637	1034.74658	-1156.52954	-337.42371	1036.21069	-886.25342	-545.60150	690.99109	-912.40436	-578.79517	494.77277	-918.38135	-546.18219	303.71948	-939.57324	-579.86017	82.80302	-1000.19604	-563.93665	54.34481	-890.94128	-726.71490	52.85459	-1267.96448	-457.59399	670.94342	-1218.62427	-438.35049	462.07077	-1218.48633	-382.23492	281.24850	-1172.29529	-350.56137	91.33393	-1114.03027	-314.86621	38.56192	-1194.94543	-499.26102	35.70693	-1096.78369	-453.61511	1810.94666						 
173	1.720	-1000.98218	-557.23120	1742.04797	-1143.09412	-564.12793	1724.08081	-1000.55688	-424.97891	1670.94861	-1142.46436	-419.34076	1651.49744	-1083.98181	-376.53903	1527.94348	-1100.76941	-324.99405	1252.47253	-1057.04822	-516.34021	1462.00098	-1073.24951	-570.85736	1290.91467	-1164.86487	-329.69150	1358.20679	-898.54413	-420.34567	1495.03076	-828.61761	-374.46228	1297.99536	-827.13208	-349.04465	1160.99072	-807.41083	-322.33295	1035.05249	-813.72095	-349.42984	897.36572	-798.46490	-298.11929	913.69617	-787.50598	-297.70135	846.95691	-1258.23547	-480.92120	1507.20081	-1359.99841	-498.56400	1323.77222	-1387.11841	-549.77521	1185.98352	-1400.14246	-617.92523	1085.73987	-1372.30774	-700.13763	981.57977	-1413.27942	-665.38202	964.86774	-1409.49390	-722.96808	921.19641	-959.26917	-558.18787	992.27289	-1214.65771	-558.65588	977.67242	-1040.38379	-347.99033	1033.72852	-1155.61450	-343.91266	1035.20483	-886.14807	-552.16992	689.89093	-912.80676	-587.84808	493.94684	-917.40515	-562.20636	301.68784	-938.25208	-603.73212	82.04910	-998.75909	-587.91553	53.21481	-890.19751	-751.54529	55.50423	-1267.72998	-462.04602	670.55505	-1218.43726	-441.37732	461.67715	-1218.16602	-383.77753	281.34573	-1172.07092	-350.82056	91.53001	-1113.84888	-315.35254	38.62640	-1195.07556	-499.25089	35.70601	-1095.17676	-461.49588	1810.26501						 
174	1.730	-999.22272	-564.75647	1740.80713	-1141.47021	-571.98792	1723.31689	-999.44781	-432.20154	1669.60413	-1141.41016	-427.20432	1651.00574	-1083.33276	-384.04919	1527.14172	-1100.07202	-332.03238	1251.75024	-1056.44849	-523.76831	1461.02917	-1072.92188	-577.92334	1289.77368	-1164.43018	-337.04068	1357.62097	-897.87152	-427.77838	1493.84302	-828.27466	-381.49289	1296.76794	-826.66711	-355.16101	1160.08887	-806.79236	-327.72800	1034.37097	-812.33911	-354.55368	896.34204	-797.69019	-302.75607	913.08319	-786.73572	-302.31534	846.49896	-1257.49072	-488.51709	1506.75281	-1359.31885	-507.12628	1323.32031	-1386.46765	-559.28564	1185.86414	-1399.24536	-627.85016	1086.19922	-1371.32922	-710.84906	982.40393	-1412.31909	-676.32483	965.45508	-1408.44006	-734.15918	922.17896	-958.99731	-565.49976	991.35388	-1214.45471	-565.28986	977.21368	-1039.53809	-355.24643	1032.66882	-1154.64026	-350.43726	1034.14294	-885.81378	-558.89850	688.56024	-912.72504	-597.09631	493.24847	-916.88672	-577.75848	300.09900	-937.01636	-626.14307	81.85598	-997.45795	-610.78870	52.78196	-890.06781	-775.24237	58.42883	-1267.35999	-466.70792	670.11841	-1218.55127	-444.63675	461.39130	-1217.92810	-385.49362	281.41656	-1171.90588	-351.13660	91.75668	-1113.68115	-315.44073	38.81768	-1195.19519	-499.23325	35.64033	-1093.55371	-469.28476	1809.41064						 
175	1.740	-997.33197	-572.06500	1739.73193	-1139.77405	-579.84509	1722.47888	-998.27344	-439.63373	1668.49670	-1140.30078	-435.03076	1650.36255	-1082.48145	-391.57327	1526.23743	-1099.25171	-339.23825	1250.97119	-1055.72278	-531.16315	1459.96765	-1072.55884	-585.42352	1288.88782	-1163.82898	-344.31851	1356.93994	-897.15082	-435.46494	1492.48462	-827.56030	-388.62137	1295.87769	-826.13208	-362.18875	1159.09790	-806.19336	-333.64664	1033.41528	-810.95001	-360.32047	895.50610	-796.83740	-308.42288	912.60406	-785.93945	-307.14935	845.94818	-1256.64026	-496.08990	1506.02991	-1358.48950	-515.51233	1322.70178	-1385.68958	-568.62952	1185.58337	-1398.42517	-637.97699	1086.14404	-1370.19360	-721.25397	982.97809	-1411.16504	-687.01508	965.87775	-1407.26758	-744.93170	923.01678	-958.85736	-572.73688	990.32251	-1214.31140	-571.99713	976.62915	-1038.63062	-362.55795	1031.59058	-1153.62927	-357.01675	1033.08215	-885.26764	-565.31824	687.43329	-912.64728	-606.67188	492.60919	-915.76178	-592.81720	298.94672	-936.03210	-646.92493	82.01887	-996.26166	-632.15887	52.93129	-890.59784	-797.90283	61.31821	-1266.91748	-471.58060	669.60693	-1218.31238	-448.08035	460.98978	-1217.65723	-387.25549	281.45462	-1171.72070	-351.42682	91.97875	-1113.73987	-315.29401	39.19497	-1195.28479	-499.24734	35.61788	-1091.75598	-477.19788	1808.54102						 
176	1.750	-995.49878	-579.64136	1738.31396	-1138.03967	-587.68762	1721.60181	-996.98657	-447.23459	1667.54443	-1139.09351	-442.75186	1649.61511	-1081.57239	-399.06927	1525.33203	-1098.39954	-346.47125	1250.10034	-1054.88879	-538.58124	1458.88843	-1072.04517	-592.72784	1287.73865	-1163.02417	-351.77673	1356.19153	-896.19440	-443.06915	1491.34802	-826.68793	-395.41061	1294.75977	-825.55872	-369.49155	1157.85364	-805.20581	-339.84351	1032.76672	-809.58423	-365.34515	894.43665	-795.74146	-313.70956	911.80176	-785.08221	-312.22491	845.09027	-1255.73413	-503.61908	1505.21460	-1357.68689	-523.78253	1321.96448	-1384.78687	-577.66449	1185.11597	-1397.27197	-647.53656	1086.07654	-1369.02234	-731.44397	983.36328	-1410.08337	-697.26941	965.97455	-1406.04358	-755.55695	923.49408	-958.58661	-580.22394	989.32788	-1214.19324	-578.81403	975.93610	-1037.68481	-369.89337	1030.54651	-1152.50879	-363.76056	1032.02051	-884.78326	-572.03674	686.23523	-912.58667	-616.57483	491.99249	-914.93341	-607.34198	298.27530	-934.92999	-667.00928	82.58572	-994.90430	-652.49548	53.33223	-891.57971	-819.16553	64.10316	-1266.44263	-476.65686	669.00354	-1218.06848	-451.65338	460.46121	-1217.50195	-389.18964	281.49481	-1171.58105	-351.78793	92.18366	-1113.42920	-315.49487	39.29500	-1195.41614	-499.28345	35.58007	-1089.97583	-485.02963	1807.63550						 
177	1.760	-993.65558	-587.24774	1736.93628	-1136.22656	-595.53497	1720.66455	-995.57513	-455.08301	1666.30872	-1137.79749	-450.55698	1649.00244	-1080.67346	-406.56311	1524.50989	-1097.35718	-353.90799	1249.17944	-1053.94971	-546.17712	1457.83899	-1071.41589	-600.19470	1286.61523	-1161.58008	-359.14258	1355.09802	-895.11511	-450.90588	1490.13037	-825.70294	-403.64023	1293.49902	-824.31042	-376.06815	1156.94067	-804.43713	-346.18930	1031.82959	-808.25330	-373.01770	893.69867	-794.61554	-320.30679	911.10400	-784.25128	-317.74121	844.05316	-1254.78857	-511.08664	1504.28125	-1356.52783	-531.87201	1320.97095	-1384.14563	-586.45984	1184.61682	-1396.18469	-656.91931	1085.99109	-1367.76489	-741.34705	983.51782	-1408.96350	-707.37720	966.05237	-1404.70154	-765.83813	923.75153	-958.51581	-587.68732	988.24677	-1214.04407	-585.74658	975.08929	-1036.72998	-377.28687	1029.51086	-1151.42065	-370.63721	1031.08130	-884.09943	-579.89508	685.25696	-912.39569	-626.72180	491.62582	-914.05542	-621.53748	297.83643	-933.93970	-686.25977	83.37508	-993.79852	-671.05890	53.83107	-892.87665	-838.92145	66.69032	-1265.89880	-481.98022	668.35242	-1217.84070	-455.33734	459.85553	-1217.26953	-391.18793	281.53943	-1171.52014	-352.04605	92.54545	-1113.40015	-315.50583	39.71405	-1195.51941	-499.31009	35.48827	-1088.37390	-493.09698	1806.95447						 
